<?xml version="1.0" encoding="UTF-8"?>
<svg id="Layer_2" data-name="Layer 2" xmlns="http://www.w3.org/2000/svg" viewBox="0 0 1043.98 177.57">
  <defs>
    <style>
      .cls-1 {
        fill: #191919;
      }
    </style>
  </defs>
  <path class="cls-1" d="M408.36,96.3c0-5.22.97-9.92,2.93-14.09,1.95-4.17,4.68-7.42,8.18-9.77,3.5-2.35,7.64-3.52,12.4-3.52,3.24,0,6.21.71,8.93,2.13,2.71,1.42,5.06,3.52,7.04,6.3v-22.41c0-.64.52-1.15,1.15-1.15h10.39c.64,0,1.15.52,1.15,1.15v66.68c0,.64-.52,1.15-1.15,1.15h-9.4c-.64,0-1.15-.52-1.15-1.15v-6.98c-2.05,2.91-4.51,5.16-7.39,6.75-2.88,1.59-6.07,2.38-9.57,2.38-4.76,0-8.9-1.21-12.4-3.62-3.51-2.41-6.23-5.69-8.18-9.82-1.95-4.13-2.93-8.81-2.93-14.04h0ZM421.65,96.3c0,5.22,1.26,9.21,3.77,11.95,2.51,2.74,5.59,4.12,9.23,4.12,2.45,0,4.66-.63,6.65-1.89,1.98-1.26,3.55-3.09,4.71-5.5s1.74-5.34,1.74-8.78-.6-6.43-1.79-8.78-2.78-4.12-4.76-5.31c-1.98-1.19-4.17-1.79-6.55-1.79-3.64,0-6.71,1.34-9.23,4.02-2.51,2.68-3.77,6.66-3.77,11.95h0Z"/>
  <path class="cls-1" d="M515.64,87.47c-1.03-3.7-2.68-6.94-4.96-9.72s-5.08-4.94-8.38-6.5c-3.31-1.55-7.04-2.33-11.21-2.33-5.03,0-9.49,1.17-13.39,3.52-3.9,2.35-6.98,5.55-9.23,9.62s-3.37,8.75-3.37,14.04,1.09,10.32,3.27,14.48c2.18,4.17,5.24,7.41,9.18,9.72,3.93,2.32,8.51,3.47,13.74,3.47,6.41,0,11.8-1.67,16.17-5.01,3.99-3.05,6.77-7.2,8.33-12.44.22-.74-.33-1.49-1.11-1.49h-10.43c-.49,0-.93.3-1.09.77-.83,2.48-2.21,4.42-4.13,5.83-2.12,1.55-4.8,2.33-8.03,2.33-2.71,0-5.04-.68-6.99-2.03-1.95-1.35-3.42-3.36-4.41-6-.68-1.82-1.12-3.9-1.34-6.25h38.04c.59-4.3.38-8.3-.64-12h-.02ZM478.41,91.33c.25-1.79.66-3.41,1.22-4.86,1.02-2.64,2.48-4.66,4.36-6.05,1.88-1.39,4.15-2.08,6.79-2.08,3.5,0,6.31,1.16,8.43,3.47,2.12,2.32,3.24,5.49,3.37,9.52h-24.18.01Z"/>
  <path class="cls-1" d="M598.37,106.12c0,5.42-2,9.72-6,12.9-4,3.17-9.71,4.76-17.11,4.76s-13.08-1.67-17.21-5.01c-3.82-3.08-6.1-7.26-6.84-12.51-.1-.7.44-1.32,1.15-1.32h9.85c.58,0,1.06.43,1.14,1.01.33,2.43,1.48,4.38,3.43,5.83,2.21,1.65,5.11,2.48,8.68,2.48,2.91,0,5.31-.48,7.19-1.44s2.83-2.46,2.83-4.51c0-1.79-.61-3.12-1.83-4.02-1.22-.89-3.19-1.6-5.9-2.13l-9.32-1.69c-4.76-.93-8.48-2.66-11.16-5.21-2.68-2.54-4.02-5.87-4.02-9.97,0-3.17.88-6,2.63-8.48,1.75-2.48,4.22-4.41,7.39-5.8,3.17-1.39,6.91-2.08,11.21-2.08s8.22.73,11.56,2.18c3.34,1.46,6.02,3.56,8.03,6.3,1.78,2.42,2.88,5.24,3.29,8.46.09.69-.45,1.31-1.15,1.31h-9.92c-.56,0-1.03-.4-1.13-.95-.41-2.27-1.48-4.1-3.19-5.5-1.95-1.59-4.45-2.38-7.49-2.38-2.65,0-4.8.51-6.45,1.54s-2.48,2.46-2.48,4.31c0,1.65.6,2.91,1.79,3.77,1.19.86,3.07,1.55,5.65,2.08l9.92,1.79c5.16.99,9.03,2.68,11.61,5.06,2.58,2.38,3.87,5.46,3.87,9.23h-.02Z"/>
  <path class="cls-1" d="M125.72,122.79h16.37c.66,0,1.21-.54,1.21-1.21v-9.82c0-.66-.54-1.21-1.21-1.21h-15.13c-1.12,0-2.02-.9-2.02-2.02v-26.46c0-1.11.9-2.02,2.02-2.02h15.13c.66,0,1.21-.54,1.21-1.21v-8.55c0-.66-.54-1.21-1.21-1.21h-15.13c-1.12,0-2.02-.9-2.02-2.02v-12.08c0-.66-.54-1.21-1.21-1.21h-9.82c-.66,0-1.21.54-1.21,1.21v12.08c0,1.11-.9,2.02-2.02,2.02h-11.7c-.66,0-1.21.54-1.21,1.21v8.55c0,.66.54,1.21,1.21,1.21h11.7c1.11,0,2.02.9,2.02,2.02v27.7c0,7.19,5.82,13.01,13.01,13.01"/>
  <path class="cls-1" d="M299.96,122.79h16.37c.66,0,1.21-.54,1.21-1.21v-9.82c0-.66-.54-1.21-1.21-1.21h-15.13c-1.12,0-2.02-.9-2.02-2.02v-26.46c0-1.11.9-2.02,2.02-2.02h15.13c.66,0,1.21-.54,1.21-1.21v-8.55c0-.66-.54-1.21-1.21-1.21h-15.13c-1.12,0-2.02-.9-2.02-2.02v-12.08c0-.66-.54-1.21-1.21-1.21h-9.82c-.66,0-1.21.54-1.21,1.21v12.08c0,1.11-.9,2.02-2.02,2.02h-11.7c-.66,0-1.21.54-1.21,1.21v8.55c0,.66.54,1.21,1.21,1.21h11.7c1.11,0,2.02.9,2.02,2.02v27.7c0,7.19,5.82,13.01,13.01,13.01"/>
  <path class="cls-1" d="M79.8,87.18c.61.61.61,1.59,0,2.19l-6.41,6.41c-.61.61-1.59.61-2.19,0l-29.98-29.98c-.61-.61-1.59-.61-2.19,0l-11.63,11.63c-.61.61-1.59.61-2.19,0l-6.41-6.41c-.61-.61-.61-1.59,0-2.19l10.59-10.59c5.92-5.92,15.55-5.92,21.47,0l28.95,28.95"/>
  <path class="cls-1" d="M9.08,80.72l29.91,30.06c.6.61,1.59.61,2.19,0l11.66-11.6c.61-.6,1.59-.6,2.19,0l6.4,6.43c.6.61.6,1.59,0,2.19l-10.62,10.56c-5.94,5.91-15.57,5.88-21.47-.05l-19.26-19.36L.45,89.3c-.6-.61-.6-1.59,0-2.19l6.43-6.4c.61-.6,1.59-.6,2.19,0"/>
  <path class="cls-1" d="M335.75,69.21c-7.25,0-13.12,5.87-13.12,13.12v39.3c0,.64.52,1.15,1.15,1.15h10.5c.64,0,1.15-.52,1.15-1.15v-40.34c0-.65.53-1.18,1.18-1.18h14.41c.41,0,.74-.33.74-.74v-9.42c0-.41-.33-.74-.74-.74h-15.29.02Z"/>
  <path class="cls-1" d="M534.54,69.21c-7.25,0-13.12,5.87-13.12,13.12v39.3c0,.64.52,1.15,1.15,1.15h10.5c.64,0,1.15-.52,1.15-1.15v-40.34c0-.65.53-1.18,1.18-1.18h14.41c.41,0,.74-.33.74-.74v-9.42c0-.41-.33-.74-.74-.74h-15.29.02Z"/>
  <path class="cls-1" d="M236.22,95.25l18.04-24.31c.57-.76.02-1.84-.93-1.84h-11.03c-.37,0-.71.17-.93.47l-11.7,15.76c-.46.62-1.39.62-1.85,0l-11.7-15.76c-.22-.29-.56-.47-.93-.47h-11.03c-.95,0-1.49,1.08-.93,1.84l18.04,24.31c.3.41.3.97,0,1.38l-18.04,24.31c-.57.76-.02,1.84.93,1.84h11.03c.37,0,.71-.17.93-.47l11.7-15.76c.46-.62,1.39-.62,1.85,0l11.7,15.76c.22.29.56.47.93.47h11.03c.95,0,1.49-1.08.93-1.84l-18.04-24.31c-.3-.41-.3-.97,0-1.38Z"/>
  <path class="cls-1" d="M352.25,96.18c0-5.2.99-9.88,2.96-14.02,1.98-4.15,4.76-7.39,8.35-9.73s7.85-3.51,12.79-3.51c3.56,0,6.65.72,9.28,2.17s4.9,3.62,6.81,6.52v-7.36c0-.64.52-1.15,1.15-1.15h9.44c.64,0,1.15.52,1.15,1.15v51.41c0,.64-.52,1.15-1.15,1.15h-9.34c-.64,0-1.15-.52-1.15-1.15v-7.21c-2.04,2.9-4.49,5.14-7.36,6.72-2.86,1.58-6.04,2.37-9.53,2.37-4.74,0-8.86-1.2-12.34-3.6-3.49-2.4-6.21-5.66-8.15-9.78-1.94-4.11-2.91-8.77-2.91-13.97h0ZM365.48,96.18c0,5.2,1.25,9.17,3.75,11.9s5.56,4.1,9.18,4.1c2.43,0,4.64-.62,6.62-1.88,1.98-1.25,3.54-3.08,4.69-5.48s1.73-5.32,1.73-8.74-.59-6.4-1.78-8.74-2.77-4.1-4.74-5.28c-1.98-1.19-4.15-1.78-6.52-1.78-3.62,0-6.68,1.33-9.18,4s-3.75,6.63-3.75,11.9h0Z"/>
  <path class="cls-1" d="M145.91,96.18c0-5.2.99-9.88,2.96-14.02,1.98-4.15,4.76-7.39,8.35-9.73,3.59-2.34,7.85-3.51,12.79-3.51,3.56,0,6.65.72,9.28,2.17s4.9,3.62,6.81,6.52v-7.36c0-.64.52-1.15,1.15-1.15h9.44c.64,0,1.15.52,1.15,1.15v51.41c0,.64-.52,1.15-1.15,1.15h-9.34c-.64,0-1.15-.52-1.15-1.15v-7.21c-2.04,2.9-4.49,5.14-7.36,6.72-2.86,1.58-6.04,2.37-9.53,2.37-4.74,0-8.86-1.2-12.34-3.6-3.49-2.4-6.21-5.66-8.15-9.78-1.94-4.11-2.91-8.77-2.91-13.97h0ZM159.14,96.18c0,5.2,1.25,9.17,3.75,11.9s5.56,4.1,9.18,4.1c2.43,0,4.64-.62,6.62-1.88,1.98-1.25,3.54-3.08,4.69-5.48,1.15-2.4,1.73-5.32,1.73-8.74s-.59-6.4-1.78-8.74-2.77-4.1-4.74-5.28-4.15-1.78-6.52-1.78c-3.62,0-6.68,1.33-9.18,4-2.5,2.67-3.75,6.63-3.75,11.9h0Z"/>
  <polyline class="cls-1" points="675.77 177.57 675.77 0 677.04 0 677.04 177.57"/>
  <path class="cls-1" d="M764.3,99.23c-3.82,15.04.99,28.24,17.39,28.24,18.62,0,33.91-17.88,39.08-35.76h-18.99c-1.11,4.56-3.45,12.7-7.4,18.62-2.71,4.07-6.66,7.77-10.36,7.77s-3.08-4.93-2.22-8.26l8.63-33.66h29.47l3.08-11.59h-29.71l5.67-22.69-23.18,10.97-2.59,11.71h-15.78l-2.96,11.59h15.78l-5.92,23.06h0ZM1043.98,91.71h-19.36c-1.97,8.51-10.6,26.14-16.89,26.14-4.44,0-3.21-5.18-2.1-9.37l10.97-43.89h-41.18l-3.58,14.3h21.08l-5.18,20.34c-3.82,15.04.49,28.24,16.89,28.24,17.38,0,32.55-15.04,39.33-35.76h0ZM998.37,47.94c0,6.66,5.67,10.23,12.58,10.23,7.27,0,13.69-4.31,13.69-11.59,0-6.78-5.79-10.48-12.58-10.48-7.52,0-13.69,4.31-13.69,11.84ZM972.35,64.59h-23.67l-18.74,22.07-8.01-22.07h-20.71l16.03,29.47-31.69,32.3h23.67l19.85-24.04,8.14,24.04h20.1l-15.78-32.3,30.82-29.47h0ZM897.02,64.59h-16.52l-6.16,14.06c-.74-9.37-6.91-15.29-17.01-15.29-12.33,0-23.92,11.34-29.96,23.55-5.3,10.36-8.01,27.62-.74,35.88,2.84,3.33,6.91,4.69,11.59,4.69,6.78,0,13.56-1.97,19.73-8.38,3.33-3.45,9.37-10.73,13.31-18.74l-2.47,26.01h12.82l15.41-61.77h0ZM847.33,115.75c-4.69,0-6.04-3.58-6.04-8.26s1.11-9.49,3.33-14.55c2.22-5.06,5.06-9.37,8.38-12.7,3.33-3.33,6.54-5.18,9.74-5.18,4.81,0,8.51,3.82,8.26,10.73-2.96,8.26-9.37,18.74-13.69,23.8-3.21,3.82-7.03,6.16-9.99,6.16h0Z"/>
</svg>